<?xml version="1.0" standalone="no"?>
<!DOCTYPE svg PUBLIC "-//W3C//DTD SVG 20010904//EN"
 "http://www.w3.org/TR/2001/REC-SVG-20010904/DTD/svg10.dtd">
<svg version="1.0" xmlns="http://www.w3.org/2000/svg"
 width="406.000000pt" height="406.000000pt" viewBox="0 0 406.000000 406.000000"
 preserveAspectRatio="xMidYMid meet">
<metadata>
Created by potrace 1.14, written by Peter Selinger 2001-2017
</metadata>
<g transform="translate(0.000000,406.000000) scale(0.100000,-0.100000)"
fill="#000000" stroke="none">
<path d="M1046 3081 c-41 -64 -57 -113 -57 -172 -1 -70 24 -121 91 -190 28
-28 50 -54 50 -59 0 -4 9 -18 19 -32 17 -22 19 -43 20 -216 1 -170 -1 -194
-17 -210 -26 -27 -94 -137 -152 -247 -104 -198 -158 -256 -241 -257 -42 0 -99
19 -99 34 0 13 29 56 73 111 36 44 38 48 16 42 -13 -3 -78 -18 -144 -34 -66
-16 -155 -37 -198 -47 -42 -10 -76 -21 -75 -25 4 -11 309 -321 312 -317 2 2
-2 40 -7 85 -11 85 -7 104 16 85 19 -17 90 -25 141 -18 102 16 175 97 288 324
44 89 82 162 84 162 2 0 3 -131 3 -291 -1 -265 0 -293 16 -308 10 -9 15 -11
11 -4 -9 16 93 16 113 0 12 -10 13 -9 7 1 -6 10 -1 13 20 12 16 -1 47 -2 70
-1 l41 1 1 255 c0 140 3 259 6 264 7 10 25 9 44 -2 6 -5 12 -5 12 0 0 4 19 8
42 7 32 -1 46 -6 53 -21 6 -12 10 -116 10 -262 l0 -241 25 -1 c14 -1 38 0 54
1 21 1 26 -2 21 -12 -6 -10 -5 -11 6 0 17 16 51 16 68 0 10 -10 12 -10 7 -1
-5 9 6 12 40 11 25 0 49 4 53 10 3 5 6 111 6 235 l-1 225 39 -30 c64 -51 65
-54 64 -250 0 -151 2 -179 16 -193 10 -9 17 -12 17 -6 0 15 43 14 59 -1 11
-10 13 -10 7 0 -5 8 1 12 18 12 13 0 27 -6 29 -12 4 -10 6 -10 6 0 1 18 41 15
65 -6 20 -16 20 -16 7 1 -12 15 -11 17 11 17 13 0 30 -6 37 -12 9 -8 12 -9 7
-1 -4 8 18 11 80 11 75 0 85 -2 80 -16 -5 -15 -4 -15 8 1 16 20 46 22 65 5 8
-7 11 -8 8 -2 -6 10 52 25 108 28 6 1 17 8 26 16 9 8 25 22 36 31 12 10 25 24
29 32 5 8 31 18 58 21 27 4 54 8 60 9 7 1 12 -20 13 -55 0 -31 6 -65 12 -75 6
-10 11 -12 11 -5 0 6 12 12 26 12 17 0 23 -4 18 -12 -6 -10 -4 -10 7 0 16 14
55 16 64 2 3 -5 12 -10 18 -10 7 0 6 4 -3 10 -12 8 -9 10 13 10 16 0 26 -4 22
-9 -3 -5 -1 -13 5 -16 6 -4 9 -1 8 7 -2 8 11 15 37 18 l40 5 0 110 0 110 65
46 c69 49 126 107 177 176 17 23 33 39 37 35 4 -3 4 2 0 13 -7 18 -6 19 11 5
15 -12 17 -12 10 -1 -6 11 -3 13 13 9 12 -4 20 -3 17 1 -6 11 44 33 57 25 7
-4 8 -2 4 4 -3 6 3 16 14 22 11 6 18 15 15 20 -3 5 0 12 5 15 12 8 29 46 37
85 9 40 9 383 1 407 -6 19 2 34 46 83 75 84 91 120 91 205 0 61 -4 78 -36 134
-37 68 -69 97 -48 44 6 -15 11 -59 12 -98 1 -82 -16 -121 -68 -161 -31 -24
-43 -26 -98 -23 -34 1 -192 3 -352 4 l-290 0 1 -110 c1 -70 -3 -113 -10 -117
-8 -5 -7 -8 2 -8 6 0 12 -7 12 -16 0 -9 -5 -12 -12 -8 -10 6 -10 4 -2 -7 15
-20 18 -82 3 -73 -9 5 -9 3 -3 -7 13 -21 13 -192 0 -201 -8 -5 -7 -8 2 -8 6 0
12 -7 12 -16 0 -9 -5 -12 -12 -8 -10 6 -10 4 -2 -7 15 -20 18 -82 3 -73 -9 5
-9 3 -3 -7 13 -21 13 -192 0 -201 -8 -5 -7 -8 2 -8 6 0 12 -7 12 -16 0 -9 -5
-12 -12 -8 -10 6 -10 4 -2 -7 11 -14 14 -133 4 -142 -3 -2 -24 -7 -46 -11
l-41 -6 1 159 c0 88 4 163 9 167 4 4 7 12 7 18 0 6 -4 5 -9 -2 -4 -8 -8 54 -7
141 1 86 4 159 9 163 4 4 7 12 7 18 0 6 -4 5 -9 -2 -5 -8 -8 25 -8 80 1 153
-11 203 -63 261 -54 62 -86 67 -407 67 l-283 0 -1 -32 c0 -18 -1 -194 -1 -390
l-1 -357 -59 47 c-33 25 -67 58 -76 74 -9 15 -19 28 -22 28 -3 0 -11 4 -19 9
-11 7 -8 14 15 34 20 18 31 22 37 14 5 -8 7 -7 6 3 -3 26 1 41 9 37 10 -7 12
17 16 182 4 146 -2 193 -31 246 -22 42 -46 63 -96 85 -37 17 -67 20 -267 20
-182 1 -229 3 -245 15 -12 10 -30 13 -52 9 -45 -8 -114 33 -138 81 -18 40 -22
138 -6 193 13 42 7 41 -23 -7z m1100 -410 c-3 -5 1 -11 9 -15 8 -3 15 -11 15
-17 0 -8 -4 -8 -14 0 -12 11 -14 6 -10 -26 6 -44 10 -50 46 -57 18 -3 28 1 32
11 6 15 -10 53 -22 53 -5 0 -8 11 -8 25 0 31 20 17 40 -29 36 -78 24 -101 -47
-89 l-35 5 2 -43 c1 -24 -1 -51 -6 -60 -4 -9 -4 -19 -1 -23 4 -4 7 -123 8
-265 l0 -258 -21 15 c-17 14 -20 26 -20 83 1 37 4 71 8 75 4 4 4 12 0 18 -11
17 -9 150 3 158 6 5 6 8 0 8 -6 0 -10 55 -10 146 l1 146 -42 -6 c-54 -7 -67 7
-52 56 6 20 20 48 32 63 l22 27 -1 -30 c0 -17 -4 -28 -11 -25 -13 5 -22 -23
-17 -48 3 -12 13 -16 34 -14 37 3 36 1 42 53 4 34 2 40 -9 31 -9 -8 -8 1 4 29
12 30 19 37 25 26 4 -8 6 -18 3 -23z m-641 -81 c3 0 4 3 2 8 -6 8 76 7 99 -2
10 -4 14 -13 10 -22 -3 -8 -2 -12 4 -9 6 4 10 -48 10 -144 0 -83 -2 -151 -4
-151 -2 0 -23 7 -47 16 -24 9 -51 17 -59 19 -8 2 -16 4 -17 5 -2 2 -12 3 -22
4 -11 0 -23 4 -27 9 -9 9 -8 262 1 277 4 7 12 7 25 0 10 -5 21 -10 25 -10z
m816 11 c0 10 2 10 5 2 4 -8 13 -9 29 -3 25 9 52 -9 37 -25 -4 -5 -1 -5 6 -1
7 4 10 11 7 16 -8 14 31 18 49 5 13 -10 14 -14 4 -18 -8 -3 -5 -6 7 -6 17 -1
17 -3 5 -11 -8 -5 -10 -10 -5 -10 7 0 10 -136 10 -402 l-1 -403 -29 2 c-16 1
-60 15 -97 30 -58 24 -68 32 -69 53 -6 157 -2 718 5 728 5 7 4 12 -3 12 -9 0
-9 5 -1 21 9 16 14 18 26 8 11 -9 14 -8 15 2z m978 -11 c12 -7 15 -41 16 -175
1 -101 -3 -175 -10 -188 -9 -20 -19 -22 -93 -23 -52 0 -82 3 -83 10 -1 6 -2
95 -3 198 l-1 186 80 1 c44 0 87 -4 94 -9z m-1791 -355 c3 -3 -8 -5 -25 -5
-17 0 -33 6 -36 14 -5 11 0 13 25 5 17 -4 33 -11 36 -14z m1767 -237 c-23 -34
-117 -128 -127 -128 -4 0 -11 0 -15 0 -5 0 -8 31 -8 69 l0 69 74 1 c41 0 76 3
79 6 13 13 12 3 -3 -17z m-1134 -214 c8 -9 13 -47 14 -100 1 -79 0 -84 -20
-84 -20 0 -21 5 -22 100 0 55 3 100 7 100 4 0 13 -7 21 -16z"/>
<path d="M3147 2579 c7 -7 15 -10 18 -7 3 3 -2 9 -12 12 -14 6 -15 5 -6 -5z"/>
<path d="M1576 2002 c-3 -5 1 -9 9 -9 8 0 12 4 9 9 -3 4 -7 8 -9 8 -2 0 -6 -4
-9 -8z"/>
<path d="M1235 1480 c3 -5 8 -10 11 -10 2 0 4 5 4 10 0 6 -5 10 -11 10 -5 0
-7 -4 -4 -10z"/>
<path d="M1350 1486 c0 -2 7 -7 16 -10 8 -3 12 -2 9 4 -6 10 -25 14 -25 6z"/>
<path d="M1650 1486 c0 -2 7 -7 16 -10 8 -3 12 -2 9 4 -6 10 -25 14 -25 6z"/>
<path d="M2310 1486 c0 -2 7 -7 16 -10 8 -3 12 -2 9 4 -6 10 -25 14 -25 6z"/>
<path d="M2385 1480 c-3 -6 1 -7 9 -4 18 7 21 14 7 14 -6 0 -13 -4 -16 -10z"/>
<path d="M2950 1486 c0 -2 7 -7 16 -10 8 -3 12 -2 9 4 -6 10 -25 14 -25 6z"/>
</g>
</svg>
