<svg width="166" height="163" viewBox="0 0 166 163" fill="none" xmlns="http://www.w3.org/2000/svg">
<g filter="url(#filter0_d_37_4598)">
<path d="M82.8903 0.721191L61.4364 3.01983L44.75 25.4954H121.031L104.344 3.01983L82.8903 0.721191Z" fill="#33DAFF"/>
<path d="M82.8903 69.9357L44.75 25.4954H121.031L82.8903 69.9357Z" fill="#A2EEFF"/>
<path d="M44.75 25.4954H60.4148L82.6523 69.6583L44.75 25.4954Z" fill="#00D0FF"/>
<path d="M121.031 25.4954H105.366L83.1283 69.6583L121.031 25.4954Z" fill="#00D0FF"/>
<path d="M82.8903 0.721191L61.4364 3.01983L44.75 25.4954H60.4148L82.8903 0.721191Z" fill="#00A7CC"/>
<path d="M82.8903 0.721191L105.366 25.4954H121.031L104.344 3.01983L82.8903 0.721191Z" fill="#00A7CC"/>
<path d="M61.6648 2.99538L60.4148 25.4954H44.75L61.4364 3.01985L61.6648 2.99538Z" fill="#A2EEFF"/>
<path d="M104.116 2.99538L105.366 25.4954H121.031L104.344 3.01985L104.116 2.99538Z" fill="#A2EEFF"/>
</g>
<defs>
<filter id="filter0_d_37_4598" x="0.75" y="0.721191" width="164.281" height="162.214" filterUnits="userSpaceOnUse" color-interpolation-filters="sRGB">
<feFlood flood-opacity="0" result="BackgroundImageFix"/>
<feColorMatrix in="SourceAlpha" type="matrix" values="0 0 0 0 0 0 0 0 0 0 0 0 0 0 0 0 0 0 127 0" result="hardAlpha"/>
<feOffset dy="49"/>
<feGaussianBlur stdDeviation="22"/>
<feComposite in2="hardAlpha" operator="out"/>
<feColorMatrix type="matrix" values="0 0 0 0 0 0 0 0 0 0 0 0 0 0 0 0 0 0 0.25 0"/>
<feBlend mode="normal" in2="BackgroundImageFix" result="effect1_dropShadow_37_4598"/>
<feBlend mode="normal" in="SourceGraphic" in2="effect1_dropShadow_37_4598" result="shape"/>
</filter>
</defs>
</svg>
